HIERARCHY
ROOT hip
{
	OFFSET 0.000000 0.000000 0.000000 
	CHANNELS 6 Xposition Yposition Zposition Xrotation Zrotation Yrotation
	JOINT abdomen
	{
		OFFSET 0.000000 3.402643 0.000000 
		CHANNELS 3 Xrotation Zrotation Yrotation
		JOINT chest
		{
			OFFSET 0.000000 8.438565 -0.680529 
			CHANNELS 3 Xrotation Zrotation Yrotation
			JOINT neck
			{
				OFFSET 0.000000 10.207942 -0.272212 
				CHANNELS 3 Xrotation Zrotation Yrotation
				JOINT head
				{
					OFFSET 0.000000 3.130431 0.000000 
					CHANNELS 3 Xrotation Zrotation Yrotation
					End Site
					{
						OFFSET 0.000000 3.130435 0.000000 
					}
				}
			}
			JOINT lCollar
			{
				OFFSET 3.470700 6.669187 -0.816635 
				CHANNELS 3 Yrotation Zrotation Xrotation
				JOINT lShldr
				{
					OFFSET 3.198488 0.000000 0.000000 
					CHANNELS 3 Zrotation Yrotation Xrotation
					JOINT lForeArm
					{
						OFFSET 10.139888 0.000000 0.000000 
						CHANNELS 3 Yrotation Zrotation Xrotation
						JOINT lHand
						{
							OFFSET 8.370511 0.000000 0.000000 
							CHANNELS 3 Zrotation Yrotation Xrotation
							End Site
							{
								OFFSET 4.083176 0.000000 0.000000 
							}
						}
					}
				}
			}
			JOINT rCollar
			{
				OFFSET -3.470700 6.669187 -0.816635 
				CHANNELS 3 Yrotation Zrotation Xrotation
				JOINT rShldr
				{
					OFFSET -3.198488 0.000000 0.000000 
					CHANNELS 3 Zrotation Yrotation Xrotation
					JOINT rForeArm
					{
						OFFSET -10.139888 0.000000 0.000000 
						CHANNELS 3 Yrotation Zrotation Xrotation
						JOINT rHand
						{
							OFFSET -8.370511 0.000000 0.000000 
							CHANNELS 3 Zrotation Yrotation Xrotation
							End Site
							{
								OFFSET -4.083176 0.000000 0.000000 
							}
						}
					}
				}
			}
		}
	}
	JOINT lThigh
	{
		OFFSET 5.308129 -1.633274 1.361059 
		CHANNELS 3 Xrotation Zrotation Yrotation
		JOINT lShin
		{
			OFFSET -2.041588 -20.007561 0.000000 
			CHANNELS 3 Xrotation Zrotation Yrotation
			JOINT lFoot
			{
				OFFSET 0.000000 -19.190928 -1.224953 
				CHANNELS 3 Xrotation Yrotation Zrotation
				End Site
				{
					OFFSET 0.000000 -2.449906 4.627600 
				}
			}
		}
	}
	JOINT rThigh
	{
		OFFSET -5.308129 -1.633274 1.361059 
		CHANNELS 3 Xrotation Zrotation Yrotation
		JOINT rShin
		{
			OFFSET 2.041588 -20.007561 0.000000 
			CHANNELS 3 Xrotation Zrotation Yrotation
			JOINT rFoot
			{
				OFFSET 0.000000 -19.190928 -1.224953 
				CHANNELS 3 Xrotation Yrotation Zrotation
				End Site
				{
					OFFSET 0.000000 -2.449906 4.627600 
				}
			}
		}
	}
}
MOTION
Frames: 16
Frame Time: 0.033333
-0.698674 43.926617 22.460386 1.458250 3.640020 -4.233960 0.000000 0.000000 0.000000 6.599940 -5.202180 -0.927168 5.855800 -4.242810 3.925020 -22.034700 5.766790 -2.974570 4.263975 9.203409 8.154106 -32.309101 27.113701 58.031601 -102.507004 -1.441930 -25.127100 -3.204790 -1.540980 1.742570 5.380733 -5.960140 16.253721 49.843300 -33.067902 64.782799 100.594002 -17.266701 39.072399 3.017320 2.123370 1.726030 -14.536184 -2.470947 13.548909 19.206070 -3.304493 -7.868411 -9.507132 5.519105 7.902717 -17.840361 -5.780406 -17.221849 26.704031 1.494125 6.160108 -12.764052 -8.681471 -4.045120 
-0.728347 43.933716 22.658552 1.410540 3.726520 -3.678560 0.000000 0.000000 0.000000 6.707020 -5.074120 -1.150790 5.776190 -4.203050 3.770030 -21.925100 5.312190 -2.962290 4.220069 8.833787 7.386596 -31.844999 27.392401 58.225101 -102.638000 -1.378990 -24.902500 -3.204790 -1.540980 1.742570 5.078109 -6.147836 15.574546 49.532501 -33.185699 65.126099 100.362000 -17.240000 39.002800 3.017320 2.123370 1.726030 -14.179475 -2.734249 11.960450 19.107347 -3.518505 -7.416873 -9.735063 6.062924 7.975973 -17.290310 -6.041809 -16.961370 26.569399 1.957453 5.173793 -12.843715 -8.167786 -3.754677 
-0.778358 43.940239 22.846155 1.605500 3.774680 -3.708050 0.000000 0.000000 0.000000 6.383120 -5.017780 -1.118280 5.827990 -4.281360 3.851760 -21.893999 5.100280 -2.964210 4.425394 8.646413 6.890769 -31.545799 27.580500 58.313099 -102.711998 -1.358630 -24.787701 -3.204790 -1.540980 1.742570 5.108900 -6.283732 15.258821 49.453098 -33.202999 65.164902 100.246002 -17.224001 38.868198 3.017320 2.123370 1.726030 -14.076668 -2.744068 11.000812 19.052485 -3.781823 -6.790024 -9.954279 6.345764 8.001634 -17.155430 -6.053007 -16.376644 26.446201 2.259869 4.512436 -12.885659 -7.872530 -3.561976 
-0.839752 43.941715 23.011292 1.819810 3.785860 -4.244680 0.000000 0.000000 0.000000 5.893050 -5.051810 -0.883118 5.887000 -4.395770 4.136840 -21.907400 5.046300 -3.006870 4.771587 8.681209 6.728759 -31.539200 27.620199 58.235802 -102.672997 -1.405420 -24.859501 -3.204790 -1.540980 1.742570 5.422766 -6.231971 15.220062 49.530300 -33.244900 64.902000 100.273003 -17.214100 38.859200 3.017320 2.123370 1.726030 -14.080044 -2.558530 10.602700 19.091177 -4.094903 -5.934577 -10.263850 6.249447 7.992447 -17.253716 -5.887234 -15.720439 26.386806 2.333852 4.379045 -12.967221 -7.752270 -3.506292 
-0.896907 43.934666 23.145987 1.893600 3.774630 -4.974080 0.000000 0.000000 0.000000 5.550160 -5.117920 -0.516067 5.867170 -4.370200 4.521260 -21.910500 5.016000 -3.053970 5.052172 8.969494 6.885105 -31.913000 27.465900 57.962101 -102.545998 -1.493950 -25.110300 -3.204790 -1.540980 1.742570 5.822758 -5.975097 15.228102 49.566700 -33.438202 64.612000 100.410004 -17.207399 39.206799 3.017320 2.123370 1.726030 -13.993445 -2.284762 10.764825 19.223211 -4.348259 -5.223809 -10.613908 5.995081 7.939956 -17.321770 -5.633433 -15.294668 26.442280 2.216553 4.706878 -13.071475 -7.736580 -3.550992 
-0.936677 43.919666 23.251698 1.763720 3.754970 -5.624670 0.000000 0.000000 0.000000 5.472080 -5.193550 -0.201735 5.735830 -4.241880 4.872940 -21.921301 5.000810 -3.066220 5.185941 9.327575 7.212348 -32.424198 27.144600 57.647499 -102.405998 -1.598620 -25.385000 -3.204790 -1.540980 1.742570 6.045636 -5.700750 15.164191 49.505001 -33.660301 64.542000 100.550003 -17.217501 39.756302 3.017320 2.123370 1.726030 -13.760029 -2.090724 11.443851 19.463554 -4.358699 -5.166356 -11.013224 5.792001 7.926920 -17.230797 -5.445632 -15.210901 26.592413 1.982194 5.316616 -13.297981 -7.827672 -3.671793 
-0.953491 43.900894 23.339884 1.483190 3.749760 -5.979670 0.000000 0.000000 0.000000 5.638820 -5.197360 -0.090490 5.555670 -4.215060 5.050930 -21.932301 5.084690 -2.930880 5.179713 9.570862 7.475370 -32.751598 26.826599 57.570702 -102.323997 -1.655700 -25.616600 -3.204790 -1.540980 1.742570 6.024893 -5.594127 15.101233 49.385601 -33.759899 64.738701 100.639999 -17.264601 40.077801 3.017320 2.123370 1.726030 -13.421188 -2.041964 12.374665 19.718899 -4.130937 -5.783118 -11.396321 5.773138 7.948057 -16.969786 -5.398629 -15.308192 26.829039 1.777334 5.868678 -13.595833 -7.963616 -3.834721 
-0.949728 43.882893 23.423124 1.198510 3.788140 -6.041300 0.000000 0.000000 0.000000 5.922750 -5.121340 -0.199060 5.428000 -4.340470 5.007170 -22.014099 5.227260 -2.673090 5.041804 9.621533 7.503630 -32.829102 26.673800 57.724400 -102.274002 -1.655340 -25.705299 -3.204790 -1.540980 1.742570 5.837984 -5.547432 15.039136 49.160900 -33.761299 64.980202 100.669998 -17.297600 39.984200 3.017320 2.123370 1.726030 -13.084398 -2.158076 13.012507 19.895971 -3.840650 -6.568251 -11.737892 5.934059 8.012824 -16.646088 -5.475739 -15.229152 27.051575 1.728634 6.016094 -13.928844 -8.167728 -3.938608 
-0.934202 43.867554 23.509176 1.033100 3.876810 -5.999890 0.000000 0.000000 0.000000 6.098470 -4.992120 -0.410610 5.458460 -4.552340 4.866620 -22.243799 5.299030 -2.373070 4.802729 9.527595 7.425556 -32.841900 26.702200 57.885300 -102.183998 -1.612300 -25.540300 -3.204790 -1.540980 1.742570 5.709969 -5.500087 15.051321 48.905899 -33.765598 65.004097 100.704002 -17.295500 39.650200 3.017320 2.123370 1.726030 -12.860827 -2.431484 13.219216 19.970308 -3.548074 -6.994728 -12.039499 6.137489 8.042723 -16.453926 -5.614704 -14.769299 27.301926 1.835812 5.713403 -14.290630 -8.343063 -3.889020 
-0.916530 43.853985 23.605562 1.060240 4.001920 -6.114970 0.000000 0.000000 0.000000 6.068560 -4.901100 -0.557758 5.639520 -4.706410 4.793540 -22.513300 5.166120 -2.112160 4.612382 9.364647 7.342507 -32.848000 26.878201 57.920700 -102.078003 -1.542120 -25.114799 -3.204790 -1.540980 1.742570 5.768173 -5.431509 15.186811 48.794899 -33.776199 64.746201 100.735001 -17.250099 39.410301 3.017320 2.123370 1.726030 -12.783220 -2.694726 13.165730 19.979164 -3.370421 -6.948368 -12.328528 6.217260 7.999413 -16.490690 -5.720734 -13.847480 27.549135 2.045287 5.055221 -14.594094 -8.438522 -3.770369 
-0.899002 43.841599 23.720709 1.200590 4.103910 -6.449110 0.000000 0.000000 0.000000 5.891800 -4.836580 -0.606780 5.808770 -4.816750 4.829560 -22.731800 4.904570 -1.917440 4.520056 9.112675 7.251202 -32.772999 27.167900 57.880600 -101.985001 -1.460220 -24.666800 -3.204790 -1.540980 1.742570 5.974070 -5.419801 15.400521 48.864399 -33.759998 64.381203 100.732002 -17.206800 39.416698 3.017320 2.123370 1.726030 -12.801082 -2.880401 13.096956 19.998827 -3.313815 -6.600480 -12.659661 6.211113 7.937631 -16.667669 -5.731144 -12.701596 27.807928 2.236056 4.345724 -14.868224 -8.471331 -3.560647 
-0.878141 43.830643 23.860569 1.378980 4.077950 -6.839820 0.000000 0.000000 0.000000 5.665920 -4.741420 -0.611409 5.900350 -4.817740 4.939200 -22.873100 4.673440 -1.789130 4.497365 8.879265 7.125982 -32.646500 27.451599 57.863701 -101.935997 -1.406850 -24.449499 -3.204790 -1.540980 1.742570 6.190269 -5.456475 15.522658 49.051102 -33.703300 64.107498 100.697998 -17.182899 39.678902 3.017320 2.123370 1.726030 -12.871306 -2.901077 13.016921 20.116663 -3.284957 -6.156368 -12.967323 6.204872 7.862055 -16.812567 -5.603469 -11.682311 27.937138 2.421691 3.676644 -15.063807 -8.375898 -3.417099 
-0.852802 43.818974 24.025482 1.598440 3.897380 -7.124200 0.000000 0.000000 0.000000 5.439780 -4.569310 -0.641770 5.892050 -4.731390 5.049520 -22.933201 4.531840 -1.671150 4.495704 8.742967 7.009633 -32.481201 27.649900 57.897900 -101.890999 -1.431690 -24.456800 -3.204790 -1.540980 1.742570 6.298894 -5.523304 15.590105 49.324501 -33.608799 63.995201 100.649002 -17.194599 40.043301 3.017320 2.123370 1.726030 -13.004807 -2.695113 12.864316 20.439404 -3.323237 -5.814614 -13.286885 6.236937 7.829731 -16.841051 -5.349103 -11.196830 27.937750 2.499833 3.228018 -15.196372 -8.207103 -3.294161 
-0.824082 43.803638 24.210279 1.751840 3.631140 -7.277250 0.000000 0.000000 0.000000 5.272460 -4.370300 -0.744003 5.815770 -4.684530 5.131910 -22.887501 4.590760 -1.528880 4.544509 8.693706 6.888854 -32.201801 27.719299 58.050900 -101.888000 -1.493930 -24.599701 -3.204790 -1.540980 1.742570 6.368731 -5.629333 15.725747 49.753799 -33.460201 63.884499 100.539001 -17.192301 40.344002 3.017320 2.123370 1.726030 -13.105965 -2.411408 12.676339 20.882147 -3.380075 -5.659929 -13.644399 6.369595 7.886301 -16.746939 -5.097329 -11.380479 27.874868 2.440900 3.181643 -15.278440 -7.954012 -3.262429 
-0.794885 43.785446 24.404737 1.788540 3.375350 -7.397190 0.000000 0.000000 0.000000 5.271700 -4.161220 -0.869443 5.627520 -4.776430 5.154040 -22.745501 4.804510 -1.312850 4.672201 8.633759 6.600952 -31.768299 27.780001 58.352402 -101.918999 -1.538830 -24.668800 -3.204790 -1.540980 1.742570 6.468614 -5.783511 15.957938 50.313801 -33.298901 63.576500 100.400002 -17.156601 40.296101 3.017320 2.123370 1.726030 -13.018464 -2.120229 12.626623 21.250414 -3.499963 -5.685931 -13.961391 6.525357 8.006129 -16.502478 -4.911746 -12.099431 27.857510 2.221104 3.528927 -15.357226 -7.628860 -3.279341 
-0.771451 43.770725 24.599756 1.754140 3.214870 -7.665230 0.000000 0.000000 0.000000 5.417870 -3.969150 -0.957172 5.363460 -4.978980 5.174730 -22.579901 5.050790 -1.032530 4.946597 8.464910 6.076035 -31.264299 27.855301 58.810600 -101.931000 -1.531470 -24.569000 -3.204790 -1.540980 1.742570 6.676472 -5.926622 16.161564 50.739799 -33.130600 63.178699 100.292000 -17.097401 39.733398 3.017320 2.123370 1.726030 -12.807809 -1.895265 12.861917 21.443913 -3.603737 -5.667796 -14.137764 6.491822 8.069568 -16.258247 -4.803872 -13.006487 27.846100 1.855338 4.154595 -15.383705 -7.251320 -3.252603 
